<svg id="Layer_1" enable-background="new 0 0 128 128" height="512" viewBox="18 10 88 98" width="512" xmlns="http://www.w3.org/2000/svg">
    <g fill="#e6e7e8">
        <path d="m104.59 40.675-9.084-5.778c-1.986-1.264-4.631-.675-5.895 1.311l-23.917 37.602c-.102.16-.254.185-.336.185s-.234-.024-.336-.185l-23.918-37.602c-1.264-1.987-3.909-2.575-5.895-1.311l-9.082 5.776c-1.986 1.264-2.574 3.909-1.311 5.895l37.201 58.487c.742 1.166 2.009 1.862 3.39 1.862h.002c1.382-.001 2.65-.698 3.39-1.866l37.105-58.485c1.26-1.987.67-4.629-1.314-5.891z"/>
        <path d="m58.044 28.047h15.874c2.142 0 3.885-1.743 3.885-3.885s-1.743-3.886-3.885-3.886h-15.874c-2.142 0-3.885 1.743-3.885 3.886s1.743 3.885 3.885 3.885z"/>
    </g>
    <path d="m100.112 37.559-9.084-5.778c-1.53-.973-3.56-.522-4.533 1.008l-23.917 37.603c-.545.856-1.794.856-2.339 0l-23.916-37.602c-.973-1.53-3.003-1.982-4.533-1.008l-9.081 5.776c-1.53.973-1.982 3.003-1.008 4.533l37.201 58.488c1.192 1.873 3.927 1.872 5.116-.003l37.105-58.486c.97-1.531.518-3.558-1.011-4.531z" fill="#fff"/>
    <path d="m64.018 96.575 36.939-58.224c-.229-.302-.506-.576-.845-.791l-9.084-5.778c-1.53-.973-3.56-.522-4.533 1.008l-23.917 37.601c-.544.856-1.794.856-2.339 0l-23.916-37.601c-.973-1.53-3.003-1.982-4.533-1.008l-9.081 5.776c-.339.215-.615.489-.844.791l37.037 58.23c1.191 1.872 3.926 1.871 5.116-.004z" fill="#fa759e"/>
    <path d="m47.286 51.026c-.331 0-.654-.164-.845-.463l-3.188-5.012c-.296-.466-.159-1.084.307-1.38s1.083-.159 1.38.307l3.188 5.012c.296.466.159 1.084-.307 1.38-.165.105-.351.156-.535.156z" fill="#3a2c60"/>
    <path d="m61.458 102.982c-1.386 0-2.657-.698-3.401-1.868l-37.2-58.487c-1.268-1.993-.677-4.646 1.315-5.913l9.082-5.776c.964-.614 2.11-.814 3.229-.567 1.117.248 2.07.917 2.684 1.882l5.655 8.891c.296.466.159 1.084-.307 1.38-.466.297-1.084.159-1.38-.307l-5.655-8.891c-.327-.515-.835-.871-1.431-1.003-.596-.133-1.207-.025-1.721.302l-9.082 5.776c-1.062.676-1.377 2.09-.701 3.152l37.201 58.488c.38.598 1.005.941 1.713.941h.001c.709 0 1.334-.344 1.714-.943l37.105-58.486c.673-1.062.358-2.475-.703-3.15l-9.084-5.778c-1.062-.677-2.477-.36-3.152.701l-23.918 37.602c-.44.692-1.193 1.105-2.013 1.105s-1.573-.413-2.013-1.105l-10.778-16.944c-.296-.466-.159-1.084.307-1.38.467-.296 1.084-.159 1.38.307l10.777 16.944c.099.155.247.179.325.179.079 0 .227-.023.326-.179l23.917-37.602c1.267-1.992 3.92-2.583 5.913-1.315l9.084 5.778c1.991 1.266 2.582 3.917 1.318 5.909l-37.103 58.485c-.743 1.171-2.014 1.871-3.401 1.872-.001 0-.002 0-.003 0z" fill="#3a2c60"/>
    <path d="m69.97 17.315h-15.874c-1.601 0-2.898 1.298-2.898 2.898s1.298 2.898 2.898 2.898h15.874c1.601 0 2.898-1.298 2.898-2.898s-1.297-2.898-2.898-2.898z" fill="#fa759e"/>
    <path d="m69.97 24.111h-15.874c-2.149 0-3.898-1.749-3.898-3.898s1.749-3.898 3.898-3.898h15.874c2.149 0 3.898 1.749 3.898 3.898s-1.749 3.898-3.898 3.898zm-15.874-5.796c-1.047 0-1.898.852-1.898 1.898s.852 1.898 1.898 1.898h15.874c1.046 0 1.898-.852 1.898-1.898s-.852-1.898-1.898-1.898z" fill="#3a2c60"/>
    </svg>